<?xml version="1.0" encoding="UTF-8" standalone="no"?>
<svg width="267px" height="26px" viewBox="0 0 267 26" version="1.1" xmlns="http://www.w3.org/2000/svg" xmlns:xlink="http://www.w3.org/1999/xlink">
    <!-- Generator: Sketch 3.6.1 (26313) - http://www.bohemiancoding.com/sketch -->
    <title>WRITE TO REPLY</title>
    <desc>Created with Sketch.</desc>
    <defs></defs>
    <g id="Page-1" stroke="none" stroke-width="1" fill="none" fill-rule="evenodd">
        <path d="M26.172,25 L33.012,0.988 L27.288,0.988 L23.076,18.34 L18.54,0.988 L14.544,0.988 L9.972,18.34 L5.76,0.988 L0.036,0.988 L6.912,25 L12.348,25 L16.524,8.512 L20.736,25 L26.172,25 Z M54,25 L48.564,15.856 C51.156,15.244 53.856,12.94 53.856,8.728 C53.856,4.264 50.76,0.988 45.756,0.988 L34.524,0.988 L34.524,25 L39.636,25 L39.636,16.468 L43.38,16.468 L48.096,25 L54,25 Z M45.036,11.968 L39.636,11.968 L39.636,5.488 L45.036,5.488 C47.052,5.488 48.6,6.712 48.6,8.692 C48.6,10.744 47.052,11.968 45.036,11.968 L45.036,11.968 Z M61.884,25 L61.884,0.988 L56.772,0.988 L56.772,25 L61.884,25 Z M76.4280001,25 L76.4280001,5.488 L83.4120001,5.488 L83.4120001,0.988 L64.2600001,0.988 L64.2600001,5.488 L71.2800001,5.488 L71.2800001,25 L76.4280001,25 Z M102.78,25 L102.78,20.5 L90.9000001,20.5 L90.9000001,15.028 L102.528,15.028 L102.528,10.528 L90.9000001,10.528 L90.9000001,5.488 L102.78,5.488 L102.78,0.988 L85.7880001,0.988 L85.7880001,25 L102.78,25 Z M124.92,25 L124.92,5.488 L131.904,5.488 L131.904,0.988 L112.752,0.988 L112.752,5.488 L119.772,5.488 L119.772,25 L124.92,25 Z M144.828,25.432 C152.064,25.432 157.356,20.248 157.356,13.012 C157.356,5.776 152.064,0.592 144.828,0.592 C137.556,0.592 132.264,5.776 132.264,13.012 C132.264,20.248 137.556,25.432 144.828,25.432 L144.828,25.432 Z M144.828,20.896 C140.364,20.896 137.52,17.476 137.52,13.012 C137.52,8.512 140.364,5.128 144.828,5.128 C149.256,5.128 152.1,8.512 152.1,13.012 C152.1,17.476 149.256,20.896 144.828,20.896 L144.828,20.896 Z M187.884,25 L182.448,15.856 C185.04,15.244 187.74,12.94 187.74,8.728 C187.74,4.264 184.644,0.988 179.64,0.988 L168.408,0.988 L168.408,25 L173.52,25 L173.52,16.468 L177.264,16.468 L181.98,25 L187.884,25 Z M178.92,11.968 L173.52,11.968 L173.52,5.488 L178.92,5.488 C180.936,5.488 182.484,6.712 182.484,8.692 C182.484,10.744 180.936,11.968 178.92,11.968 L178.92,11.968 Z M207.648,25 L207.648,20.5 L195.768,20.5 L195.768,15.028 L207.396,15.028 L207.396,10.528 L195.768,10.528 L195.768,5.488 L207.648,5.488 L207.648,0.988 L190.656,0.988 L190.656,25 L207.648,25 Z M215.856,25 L215.856,16.432 L221.976,16.432 C227.16,16.432 230.04,12.904 230.04,8.728 C230.04,4.516 227.196,0.988 221.976,0.988 L210.744,0.988 L210.744,25 L215.856,25 Z M221.256,11.932 L215.856,11.932 L215.856,5.488 L221.256,5.488 C223.272,5.488 224.82,6.712 224.82,8.728 C224.82,10.708 223.272,11.932 221.256,11.932 L221.256,11.932 Z M247.428,25 L247.428,20.5 L237.276,20.5 L237.276,0.988 L232.128,0.988 L232.128,25 L247.428,25 Z M257.22,25 L257.22,15.172 L266.4,0.988 L260.604,0.988 L254.664,10.6 L248.724,0.988 L242.892,0.988 L252.108,15.172 L252.108,25 L257.22,25 Z" id="WRITE-TO-REPLY" fill="#333333"></path>
    </g>
</svg>