<?xml version="1.0" encoding="UTF-8" standalone="no"?>
<svg width="269px" height="26px" viewBox="0 0 269 26" version="1.1" xmlns="http://www.w3.org/2000/svg" xmlns:xlink="http://www.w3.org/1999/xlink">
    <!-- Generator: Sketch 3.6.1 (26313) - http://www.bohemiancoding.com/sketch -->
    <title>WRITE TO REPLY</title>
    <desc>Created with Sketch.</desc>
    <defs></defs>
    <g id="Page-1" stroke="none" stroke-width="1" fill="none" fill-rule="evenodd">
        <path d="M27.485,25 L34.361,0.988 L27.377,0.988 L23.777,17.008 L19.673,0.988 L14.921,0.988 L10.817,17.008 L7.181,0.988 L0.233,0.988 L7.109,25 L13.661,25 L17.297,9.952 L20.933,25 L27.485,25 Z M55.664,25 L50.768,16.18 C53.036,15.388 55.556,13.156 55.556,8.98 C55.556,4.516 52.532,0.988 47.204,0.988 L35.18,0.988 L35.18,25 L41.372,25 L41.372,16.936 L44.54,16.936 L48.572,25 L55.664,25 Z M46.268,11.536 L41.372,11.536 L41.372,6.388 L46.268,6.388 C47.924,6.388 49.256,7.288 49.256,8.944 C49.256,10.636 47.924,11.536 46.268,11.536 L46.268,11.536 Z M64.043,25 L64.043,0.988 L57.851,0.988 L57.851,25 L64.043,25 Z M78.794,25 L78.794,6.388 L85.49,6.388 L85.49,0.988 L65.87,0.988 L65.87,6.388 L72.602,6.388 L72.602,25 L78.794,25 Z M104.921,25 L104.921,19.6 L93.509,19.6 L93.509,15.532 L104.669,15.532 L104.669,10.132 L93.509,10.132 L93.509,6.388 L104.921,6.388 L104.921,0.988 L87.317,0.988 L87.317,25 L104.921,25 Z M127.043,25 L127.043,6.388 L133.739,6.388 L133.739,0.988 L114.119,0.988 L114.119,6.388 L120.851,6.388 L120.851,25 L127.043,25 Z M146.402,25.432 C153.746,25.432 159.218,20.32 159.218,13.012 C159.218,5.704 153.746,0.592 146.402,0.592 C139.058,0.592 133.55,5.704 133.55,13.012 C133.55,20.32 139.058,25.432 146.402,25.432 L146.402,25.432 Z M146.402,19.96 C142.442,19.96 139.85,16.9 139.85,13.012 C139.85,9.088 142.442,6.064 146.402,6.064 C150.362,6.064 152.918,9.088 152.918,13.012 C152.918,16.9 150.362,19.96 146.402,19.96 L146.402,19.96 Z M189.8,25 L184.904,16.18 C187.172,15.388 189.692,13.156 189.692,8.98 C189.692,4.516 186.668,0.988 181.34,0.988 L169.316,0.988 L169.316,25 L175.508,25 L175.508,16.936 L178.676,16.936 L182.708,25 L189.8,25 Z M180.404,11.536 L175.508,11.536 L175.508,6.388 L180.404,6.388 C182.06,6.388 183.392,7.288 183.392,8.944 C183.392,10.636 182.06,11.536 180.404,11.536 L180.404,11.536 Z M209.591,25 L209.591,19.6 L198.179,19.6 L198.179,15.532 L209.339,15.532 L209.339,10.132 L198.179,10.132 L198.179,6.388 L209.591,6.388 L209.591,0.988 L191.987,0.988 L191.987,25 L209.591,25 Z M218.258,25 L218.258,16.936 L224.09,16.936 C229.49,16.936 232.442,13.3 232.442,8.98 C232.442,4.624 229.49,0.988 224.09,0.988 L212.066,0.988 L212.066,25 L218.258,25 Z M223.154,11.536 L218.258,11.536 L218.258,6.388 L223.154,6.388 C224.81,6.388 226.142,7.324 226.142,8.98 C226.142,10.6 224.81,11.536 223.154,11.536 L223.154,11.536 Z M249.821,25 L249.821,19.6 L240.173,19.6 L240.173,0.988 L233.981,0.988 L233.981,25 L249.821,25 Z M260,25 L260,15.316 L269.072,0.988 L262.052,0.988 L256.904,9.844 L251.684,0.988 L244.7,0.988 L253.808,15.316 L253.808,25 L260,25 Z" id="WRITE-TO-REPLY" fill="#000000"></path>
    </g>
</svg>